<?xml version="1.0" encoding="UTF-8" standalone="no"?>
<!-- Created with Inkscape (http://www.inkscape.org/) -->
<svg id="svg2" xmlns:rdf="http://www.w3.org/1999/02/22-rdf-syntax-ns#" xmlns="http://www.w3.org/2000/svg" xml:space="preserve" height="50" width="100" version="1.1" xmlns:cc="http://creativecommons.org/ns#" xmlns:dc="http://purl.org/dc/elements/1.1/"><metadata id="metadata8"><rdf:RDF><cc:Work rdf:about=""><dc:format>image/svg+xml</dc:format><dc:type rdf:resource="http://purl.org/dc/dcmitype/StillImage"/><dc:title/></cc:Work></rdf:RDF></metadata><defs id="defs6"><clipPath id="clipPath16"><path id="path18" d="m0,61.655,129.28,0v-61.655h-129.28v61.655z"/></clipPath></defs><g id="g10" transform="matrix(0.77734544,0,0,-0.78204651,-0.49088163,49.088879)"><g id="g12"><g id="g14" clip-path="url(#clipPath16)"><g id="g20" transform="translate(128.3003,50.6851)"><path id="path22" fill-rule="nonzero" fill="#FFF" d="m0,0,0.599,0.599c-0.746,0.672-1.48,0.953-2.594,0.953-1.725,0-2.788-0.977-2.788-2.457,0-0.698,0.22-1.236,0.66-1.628,0.379-0.33,0.917-0.55,1.602-0.66l1.016-0.159c0.636-0.098,0.857-0.171,1.138-0.416s0.416-0.636,0.416-1.089c0-1.015-0.783-1.615-2.056-1.615-0.979,0-1.652,0.232-2.373,0.954l-0.636-0.636c0.819-0.819,1.675-1.148,2.985-1.148,1.811,0,3.008,0.94,3.008,2.469,0,0.722-0.256,1.322-0.733,1.726-0.366,0.318-0.77,0.489-1.591,0.611l-0.953,0.147c-0.453,0.073-0.906,0.245-1.176,0.477-0.268,0.233-0.391,0.575-0.391,1.003,0,0.967,0.673,1.615,1.836,1.615,0.917,0,1.493-0.257,2.031-0.746m-7.109-7.229,0.991,0-3.193,8.708-0.782,0-3.205-8.708,0.99,0,0.698,1.97,3.803,0,0.698-1.97zm-0.966,2.775-3.253,0,1.638,4.599,1.615-4.599zm-11.786-2.775,5.381,0,0,0.83-4.454,0,0,7.878-0.927,0,0-8.708zm-2.546-14.58,0.992,0-3.197,8.721-0.784,0-3.21-8.721,0.992,0,0.699,1.973,3.809,0,0.699-1.973zm-0.968,2.78-3.259,0,1.642,4.606,1.617-4.606zm0.889,11.8,0.991,0-3.193,8.708-0.784,0-3.204-8.708,0.99,0,0.698,1.97,3.803,0,0.699-1.97zm-0.967,2.775-3.253,0,1.639,4.599,1.614-4.599zm-6.177-14.955c0,0.723-0.256,1.323-0.733,1.728-0.367,0.318-0.772,0.49-1.593,0.612l-0.956,0.147c-0.453,0.074-0.907,0.245-1.176,0.478-0.27,0.233-0.392,0.576-0.392,1.005,0,0.968,0.673,1.617,1.837,1.617,0.919,0,1.496-0.257,2.035-0.747l0.599,0.6c-0.746,0.673-1.481,0.954-2.596,0.954-1.728,0-2.793-0.978-2.793-2.461,0-0.698,0.221-1.237,0.661-1.629,0.379-0.331,0.918-0.552,1.605-0.662l1.017-0.159c0.636-0.098,0.858-0.172,1.139-0.417,0.282-0.245,0.416-0.637,0.416-1.09,0-1.017-0.783-1.618-2.058-1.618-0.981,0-1.654,0.233-2.376,0.956l-0.636-0.637c0.818-0.82,1.677-1.15,2.987-1.15,1.815,0,3.013,0.942,3.013,2.473m-4.533,17.537c-0.271,0.233-0.393,0.575-0.393,1.003,0,0.967,0.674,1.615,1.836,1.615,0.918,0,1.492-0.257,2.032-0.746l0.598,0.599c-0.745,0.672-1.479,0.953-2.594,0.953-1.724,0-2.788-0.977-2.788-2.457,0-0.698,0.221-1.236,0.66-1.628,0.378-0.33,0.917-0.55,1.603-0.66l1.016-0.159c0.635-0.098,0.856-0.171,1.137-0.416,0.282-0.245,0.416-0.636,0.416-1.089,0-1.015-0.782-1.615-2.055-1.615-0.979,0-1.653,0.232-2.373,0.954l-0.635-0.636c0.818-0.819,1.674-1.148,2.983-1.148,1.812,0,3.009,0.94,3.009,2.469,0,0.722-0.257,1.322-0.733,1.726-0.368,0.318-0.77,0.489-1.59,0.611l-0.955,0.147c-0.452,0.073-0.906,0.245-1.174,0.477m-8.334-19.937,5.412,0,0,0.832-4.483,0,0,3.15,3.822,0,0,0.831-3.822,0,0,3.076,4.483,0,0,0.832-5.412,0,0-8.721zm5.152,17.453,0,5.835-0.928,0,0-5.762c0-1.321-0.844-2.189-2.118-2.189-1.272,0-2.104,0.868-2.104,2.189v5.762h-0.928v-5.835c0-1.737,1.271-2.946,3.032-2.946,1.763,0,3.046,1.209,3.046,2.946m-7.469-2.873-3.131,5.345,2.74,3.363-1.138,0-4.061-5.002,0,5.002-0.928,0,0-8.708,0.928,0,0,2.434,1.835,2.201,2.654-4.635,1.101,0zm-13.791-14.58,5.414,0,0,0.832-4.398,0,4.398,7.106,0,0.783-5.244,0,0-0.832,4.19,0-4.36-7.008,0-0.881zm4.987,17.453,0,5.835-0.928,0,0-5.762c0-1.321-0.846-2.189-2.117-2.189-1.274,0-2.106,0.868-2.106,2.189v5.762h-0.927v-5.835c0-1.737,1.271-2.946,3.033-2.946s3.045,1.209,3.045,2.946m-4.892,6.888,3.682,0,0,0.696-3.682,0,0-0.696zm-2.906-24.341,0.93,0,0,8.72-0.93,0,0-8.72zm5.397-5.859-5.413,0,0-8.72,5.413,0,0,0.831-4.482,0,0,3.15,3.821,0,0,0.831-3.821,0,0,3.076,4.482,0,0,0.832zm-6.904,20.439,0.928,0,0,8.708-0.928,0-2.765-6.176-2.838,6.176-0.928,0,0-8.708,0.928,0,0,6.616,2.422-5.246,0.795,0,2.386,5.246,0-6.616zm-65.377-43.456,45.29,0,0,4.736-45.29,0,0-4.736zm35.135,14.209,9.486,0,0,47.446-9.35,0-12.627-17.252-12.627,17.252-9.351,0,0-47.446,9.488,0,0,32.69,12.49-16.675,12.491,16.675,0-32.69zm26.993,23.388-3.282,0,0-8.721,3.391,0c1.544,0,2.597,0.832,2.597,2.413,0,1.042-0.588,1.764-1.419,2.07,0.734,0.269,1.284,0.992,1.284,1.911,0,1.459-1.051,2.327-2.571,2.327m-2.353-4.69,2.377,0c1.079,0,1.752-0.613,1.752-1.594,0-0.98-0.673-1.605-1.752-1.605h-2.377v3.199zm2.279,3.858c0.969,0,1.716-0.465,1.716-1.507s-0.747-1.52-1.716-1.52h-2.279v3.027h2.279zm-2.389-14.58c-0.819-0.82-0.819-1.678-0.819-3.528s0-2.708,0.819-3.529c0.588-0.587,1.371-0.905,2.229-0.905,1.555,0,2.744,0.954,3.026,2.596h-0.932c-0.232-1.066-1.003-1.764-2.094-1.764-0.576,0-1.127,0.22-1.507,0.612-0.551,0.564-0.612,1.164-0.612,2.99,0,1.825,0.061,2.426,0.612,2.989,0.38,0.393,0.931,0.613,1.507,0.613,1.091,0,1.838-0.698,2.07-1.764h0.956c-0.294,1.642-1.458,2.596-3.026,2.596-0.858,0-1.641-0.318-2.229-0.906m15.379,0.832-0.88,0,0-8.72,0.929,0,0,6.993,4.632-6.993,0.881,0,0,8.72-0.93,0,0-6.969-4.632,6.969zm7.471,14.58,0-6.969-4.632,6.969-0.881,0,0-8.721,0.93,0,0,6.994,4.632-6.994,0.88,0,0,8.721-0.929,0zm5.802-14.58-5.977,0,0-0.832,2.523,0,0-7.888,0.93,0,0,7.888,2.524,0,0,0.832zm5.072,0-3.344,0,0-8.72,0.93,0,0,3.871,2.096,0,1.985-3.871,1.088,0-2.07,3.956c1.127,0.233,1.899,1.065,1.899,2.339,0,1.508-1.065,2.425-2.584,2.425m-0.086-0.832c1.018,0,1.74-0.539,1.74-1.605s-0.722-1.593-1.74-1.593h-2.328v3.198h2.328zm4.79-6.175-0.636-0.637c0.819-0.82,1.676-1.15,2.988-1.15,1.813,0,3.013,0.942,3.013,2.473,0,0.723-0.258,1.324-0.734,1.728-0.367,0.319-0.773,0.49-1.593,0.613l-0.956,0.147c-0.453,0.073-0.907,0.245-1.176,0.478-0.27,0.232-0.392,0.575-0.392,1.004,0,0.968,0.673,1.618,1.838,1.618,0.918,0,1.495-0.258,2.034-0.748l0.598,0.601c-0.745,0.672-1.48,0.954-2.595,0.954-1.728,0-2.793-0.979-2.793-2.462,0-0.698,0.219-1.237,0.661-1.629,0.379-0.331,0.918-0.552,1.605-0.662l1.017-0.159c0.637-0.098,0.858-0.172,1.139-0.417,0.282-0.245,0.417-0.637,0.417-1.09,0-1.017-0.785-1.617-2.059-1.617-0.981,0-1.654,0.232-2.376,0.955"/></g></g></g></g></svg>
