<?xml version="1.0" encoding="UTF-8" standalone="no"?>
<!-- Created with Inkscape (http://www.inkscape.org/) -->
<svg id="svg2" xmlns:rdf="http://www.w3.org/1999/02/22-rdf-syntax-ns#" xmlns="http://www.w3.org/2000/svg" xml:space="preserve" height="162" width="91" version="1.1" xmlns:cc="http://creativecommons.org/ns#" xmlns:dc="http://purl.org/dc/elements/1.1/"><metadata id="metadata8"><rdf:RDF><cc:Work rdf:about=""><dc:format>image/svg+xml</dc:format><dc:type rdf:resource="http://purl.org/dc/dcmitype/StillImage"/><dc:title/></cc:Work></rdf:RDF></metadata><defs id="defs6"><clipPath id="clipPath16" clipPathUnits="userSpaceOnUse"><path id="path18" d="m0,136.5,78.567,0v-136.5h-78.567v136.5z"/></clipPath></defs><g id="g10" transform="matrix(1.25,0,0,-1.25,0,162)"><g id="g12" transform="matrix(0.92668268,0,0,0.92668268,1.7717433e-5,1.6)"><g id="g14" clip-path="url(#clipPath16)"><g id="g20" fill="#FFF" transform="translate(77.4893,40.2148)"><path id="path22" fill-rule="nonzero" fill="#FFF" d="m0,0,0.66,0.661c-0.822,0.741-1.632,1.051-2.86,1.051-1.903,0-3.075-1.078-3.075-2.711,0-0.769,0.242-1.362,0.727-1.794,0.418-0.365,1.012-0.607,1.768-0.729l1.12-0.175c0.702-0.108,0.945-0.189,1.255-0.459,0.311-0.27,0.459-0.702,0.459-1.201,0-1.12-0.864-1.781-2.267-1.781-1.08,0-1.822,0.256-2.617,1.052l-0.701-0.701c0.903-0.903,1.847-1.267,3.291-1.267,1.997,0,3.318,1.037,3.318,2.724,0,0.796-0.283,1.457-0.808,1.903-0.405,0.35-0.85,0.539-1.755,0.674l-1.052,0.162c-0.5,0.081-0.999,0.27-1.296,0.526-0.297,0.257-0.432,0.635-0.432,1.107,0,1.066,0.742,1.781,2.025,1.781,1.012,0,1.646-0.283,2.24-0.823m-7.84-7.973,1.093,0-3.522,9.604-0.863,0-3.535-9.604,1.093,0,0.769,2.172,4.196,0,0.769-2.172zm-1.066,3.061-3.589,0,1.808,5.072,1.781-5.072zm-12.999-3.061,5.934,0,0,0.916-4.91,0,0,8.688-1.024,0,0-9.604zm-55.584,22.224,60.257,0,0,6.3-60.257,0,0-6.3zm46.747,18.905,12.623,0,0,63.127-12.441,0-16.801-22.953-16.801,22.953-12.441,0,0-63.127,12.623,0,0,43.495,16.619-22.187,16.619,22.187,0-43.495zm-45.498-32.186h-1.023v-9.604h1.023v7.297l2.672-5.786h0.877l2.632,5.786v-7.297h1.023v9.604h-1.023l-3.05-6.812-3.131,6.812zm2.597-16.066-3.62,0,0-9.618,3.742,0c1.703,0,2.863,0.917,2.863,2.66,0,1.149-0.648,1.946-1.566,2.284,0.81,0.297,1.417,1.093,1.417,2.107,0,1.609-1.16,2.567-2.836,2.567m-2.595-5.173,2.622,0c1.189,0,1.933-0.676,1.933-1.758,0-1.081-0.744-1.77-1.933-1.77h-2.622v3.528zm2.514,4.255c1.068,0,1.892-0.513,1.892-1.662s-0.824-1.676-1.892-1.676h-2.514v3.338h2.514zm-2.635-16.08c-0.904-0.906-0.904-1.851-0.904-3.892s0-2.987,0.904-3.892c0.648-0.648,1.513-0.998,2.458-0.998,1.716,0,3.027,1.052,3.337,2.863h-1.026c-0.257-1.176-1.108-1.946-2.311-1.946-0.635,0-1.243,0.243-1.662,0.676-0.608,0.621-0.675,1.283-0.675,3.297s0.067,2.676,0.675,3.297c0.419,0.433,1.027,0.676,1.662,0.676,1.203,0,2.027-0.77,2.284-1.946h1.053c-0.324,1.811-1.607,2.863-3.337,2.863-0.945,0-1.81-0.351-2.458-0.998m7.961,7.38,1.025,0,0,9.618-1.025,0,0-9.618zm5.954-6.463-5.97,0,0-9.618,5.97,0,0,0.917-4.945,0,0,3.474,4.216,0,0,0.917-4.216,0,0,3.393,4.945,0,0,0.917zm-2.749,33.309,4.061,0,0,0.767-4.061,0,0-0.767zm4.372-1.162,0-6.354c0-1.457-0.931-2.415-2.334-2.415-1.404,0-2.322,0.958-2.322,2.415v6.354h-1.023v-6.435c0-1.916,1.401-3.25,3.345-3.25,1.943,0,3.358,1.334,3.358,3.25v6.435h-1.024zm1.495-24.767-4.85,0,4.85,7.838,0,0.863-5.783,0,0-0.918,4.621,0-4.81-7.729,0-0.971,5.972,0,0,0.917zm-0.071-7.38-0.971,0,0-9.618,1.025,0,0,7.713,5.109-7.713,0.971,0,0,9.618-1.025,0,0-7.686-5.109,7.686zm3.185,6.463,0,7.713,5.108-7.713,0.971,0,0,9.618-1.025,0,0-7.687-5.108,7.687-0.972,0,0-9.618,1.026,0zm6.126,16.08-3.454,5.895,3.022,3.709-1.255,0-4.479-5.517,0,5.517-1.023,0,0-9.604,1.023,0,0,2.684,2.024,2.428,2.927-5.112,1.215,0zm5.328-22.543-6.592,0,0-0.917,2.783,0,0-8.701,1.026,0,0,8.701,2.783,0,0,0.917zm1.885,32.147,0-6.354c0-1.457-0.931-2.415-2.334-2.415-1.404,0-2.322,0.958-2.322,2.415v6.354h-1.023v-6.435c0-1.916,1.401-3.25,3.345-3.25,1.943,0,3.358,1.334,3.358,3.25v6.435h-1.024zm-3.633-24.767,0,3.474,4.215,0,0,0.917-4.215,0,0,3.392,4.945,0,0,0.918-5.971,0,0-9.618,5.971,0,0,0.917-4.945,0zm7.342-7.38-3.688,0,0-9.618,1.025,0,0,4.269,2.312,0,2.189-4.269,1.201,0-2.282,4.364c1.243,0.256,2.093,1.174,2.093,2.58,0,1.662-1.174,2.674-2.85,2.674m-0.094-0.917c1.121,0,1.919-0.595,1.919-1.771s-0.798-1.757-1.919-1.757h-2.569v3.528h2.569zm1.001,13.297c-0.297,0.256-0.432,0.635-0.432,1.108,0,1.067,0.743,1.784,2.027,1.784,1.014,0,1.649-0.284,2.244-0.825l0.661,0.662c-0.823,0.743-1.634,1.053-2.864,1.053-1.906,0-3.08-1.08-3.08-2.715,0-0.77,0.243-1.365,0.729-1.797,0.418-0.365,1.013-0.608,1.77-0.73l1.121-0.175c0.703-0.109,0.947-0.19,1.258-0.46,0.31-0.27,0.459-0.703,0.459-1.203,0-1.121-0.865-1.783-2.271-1.783-1.081,0-1.824,0.256-2.621,1.054l-0.701-0.703c0.904-0.904,1.849-1.268,3.295-1.268,2.001,0,3.323,1.038,3.323,2.727,0,0.798-0.283,1.46-0.809,1.906-0.405,0.351-0.851,0.54-1.757,0.675l-1.054,0.163c-0.5,0.081-1,0.27-1.298,0.527m-0.083,16.071c-0.297,0.257-0.432,0.635-0.432,1.107,0,1.066,0.743,1.781,2.025,1.781,1.012,0,1.646-0.283,2.24-0.823l0.66,0.661c-0.822,0.741-1.632,1.051-2.86,1.051-1.903,0-3.075-1.078-3.075-2.711,0-0.769,0.243-1.362,0.727-1.794,0.418-0.365,1.012-0.607,1.768-0.729l1.12-0.175c0.702-0.108,0.945-0.189,1.255-0.459,0.311-0.27,0.459-0.702,0.459-1.201,0-1.12-0.864-1.781-2.267-1.781-1.08,0-1.822,0.256-2.617,1.052l-0.701-0.701c0.903-0.903,1.847-1.267,3.291-1.267,1.997,0,3.318,1.037,3.318,2.724,0,0.796-0.283,1.457-0.808,1.903-0.405,0.35-0.85,0.539-1.754,0.674l-1.053,0.162c-0.5,0.081-0.999,0.27-1.296,0.526m4.364-36.179-0.702-0.703c0.904-0.904,1.85-1.268,3.296-1.268,2,0,3.323,1.039,3.323,2.728,0,0.797-0.283,1.459-0.809,1.905-0.405,0.352-0.851,0.541-1.757,0.676l-1.054,0.162c-0.5,0.081-1.001,0.27-1.298,0.527s-0.432,0.635-0.432,1.108c0,1.068,0.743,1.784,2.027,1.784,1.014,0,1.649-0.284,2.244-0.824l0.661,0.662c-0.824,0.742-1.634,1.052-2.864,1.052-1.906,0-3.08-1.079-3.08-2.714,0-0.771,0.243-1.365,0.728-1.798,0.419-0.365,1.013-0.608,1.77-0.729l1.122-0.176c0.703-0.108,0.946-0.189,1.257-0.46,0.311-0.27,0.46-0.702,0.46-1.202,0-1.122-0.865-1.784-2.271-1.784-1.081,0-1.825,0.257-2.621,1.054m7.746,32.443,0.769-2.172,1.093,0-3.521,9.604-0.864,0-3.534-9.604,1.093,0,0.768,2.172,4.196,0zm-0.297,0.889-3.588,0,1.808,5.072,1.78-5.072zm-3.818-16.966,4.201,0,0.771-2.175,1.094,0-3.526,9.618-0.865,0-3.54-9.618,1.095,0,0.77,2.175zm0.31,0.89,1.811,5.08,1.783-5.08-3.594,0z"/></g></g></g></g></svg>
